<svg width="36" height="31" viewBox="0 0 36 31" fill="none" xmlns="http://www.w3.org/2000/svg">
<path d="M35.0049 29.0987L35.4735 2.10189C35.477 1.82853 35.3661 1.55859 35.153 1.3211C34.9398 1.08362 34.6324 0.887589 34.2639 0.754116C33.8953 0.620642 33.4795 0.55478 33.0613 0.563617C32.6431 0.572454 32.2382 0.655656 31.8903 0.804267L1.78987 13.7785C0.541862 14.3162 0.518482 15.663 1.74704 16.2457L31.3789 30.2683C31.7206 30.4306 32.1225 30.5293 32.5409 30.5537C32.9592 30.5781 33.378 30.5272 33.7518 30.4067C34.1256 30.2861 34.44 30.1004 34.6609 29.8698C34.8818 29.6392 35.0008 29.3725 35.0049 29.0987ZM7.11219 15.1066L30.8291 4.8829L30.4598 26.1564L7.11219 15.1066Z" fill="#EF0E90"/>
</svg>
