<svg width="36" height="30" viewBox="0 0 36 30" fill="none" xmlns="http://www.w3.org/2000/svg">
<path d="M0.783562 1.5009V28.5017C0.784874 28.775 0.900365 29.043 1.1176 29.2767C1.33484 29.5104 1.6456 29.701 2.01643 29.828C2.38726 29.955 2.80412 30.0135 3.22213 29.9974C3.64015 29.9812 4.04349 29.8909 4.38874 29.7362L34.2596 16.2358C35.4981 15.6763 35.4981 14.3293 34.2596 13.7683L4.38874 0.267868C4.04421 0.111601 3.64067 0.0199624 3.22195 0.00290847C2.80324 -0.0141455 2.38538 0.0440377 2.01376 0.171136C1.64215 0.298235 1.33099 0.489388 1.11411 0.723827C0.897219 0.958266 0.782901 1.22703 0.783562 1.5009ZM28.915 15.0013L5.37908 25.6396V4.36298L28.915 15.0013Z" fill="#EF0E90"/>
</svg>
