<svg width="100%" height="100%" id="svg" viewBox="0 0 1440 390" xmlns="http://www.w3.org/2000/svg" class="transition duration-300 ease-in-out delay-150"><path d="M 0,400 L 0,360 C 68.51674641148324,350.5645933014354 137.03349282296648,341.12918660287085 235,334 C 332.9665071770335,326.87081339712915 460.38277511961724,322.04784688995215 575,306 C 689.6172248803828,289.95215311004785 791.4354066985646,262.67942583732054 893,231 C 994.5645933014354,199.32057416267943 1095.8755980861245,163.23444976076556 1187,134 C 1278.1244019138755,104.76555023923444 1359.0622009569379,82.38277511961722 1440,60 L 1440,400 L 0,400 Z" stroke="none" stroke-width="0" fill="#ef0e90" fill-opacity="0.265" class="transition-all duration-300 ease-in-out delay-150 path-0"></path><path d="M 0,400 L 0,440 C 62.42105263157893,439.5980861244019 124.84210526315786,439.19617224880386 235,419 C 345.15789473684214,398.80382775119614 503.0526315789474,358.8133971291866 620,345 C 736.9473684210526,331.1866028708134 812.9473684210526,343.55023923444975 894,317 C 975.0526315789474,290.44976076555025 1061.157894736842,224.98564593301435 1153,189 C 1244.842105263158,153.01435406698565 1342.421052631579,146.50717703349284 1440,140 L 1440,400 L 0,400 Z" stroke="none" stroke-width="0" fill="#ef0e90" fill-opacity="0.4" class="transition-all duration-300 ease-in-out delay-150 path-1"></path><path d="M 0,400 L 0,520 C 97.00478468899522,522.6028708133972 194.00956937799043,525.2057416267943 290,508 C 385.99043062200957,490.7942583732057 480.96650717703346,453.7799043062201 573,428 C 665.0334928229665,402.2200956937799 754.1244019138757,387.67464114832535 848,372 C 941.8755980861243,356.32535885167465 1040.5358851674641,339.52153110047846 1140,314 C 1239.4641148325359,288.47846889952154 1339.732057416268,254.23923444976077 1440,220 L 1440,400 L 0,400 Z" stroke="none" stroke-width="0" fill="#ef0e90" fill-opacity="0.53" class="transition-all duration-300 ease-in-out delay-150 path-2"></path><path d="M 0,400 L 0,600 C 111.37799043062202,603.2344497607655 222.75598086124404,606.4688995215311 314,592 C 405.24401913875596,577.5311004784689 476.3540669856459,545.3588516746412 567,512 C 657.6459330143541,478.6411483253588 767.8277511961724,444.0956937799043 860,430 C 952.1722488038276,415.9043062200957 1026.3349282296651,422.25837320574163 1120,404 C 1213.6650717703349,385.74162679425837 1326.8325358851675,342.87081339712915 1440,300 L 1440,400 L 0,400 Z" stroke="none" stroke-width="0" fill="#ef0e90" fill-opacity="1" class="transition-all duration-300 ease-in-out delay-150 path-3"></path></svg>